<?xml version="1.0" encoding="iso-8859-1"?>
<!-- Generator: Adobe Illustrator 19.0.0, SVG Export Plug-In . SVG Version: 6.00 Build 0)  -->
<svg version="1.1" id="Layer_1" xmlns="http://www.w3.org/2000/svg" xmlns:xlink="http://www.w3.org/1999/xlink" x="0px" y="0px"
	 viewBox="0 0 720 237.6" style="enable-background:new 0 0 720 237.6;" xml:space="preserve">
<g>
	<path d="M421.095,140.99H496.9v-8.422h-66.329V82.207h56.502v-8.423h-56.502V24.476H496.9v-8.423h-75.806V140.99 M397.231,105.545
		h-9.301c-3.685,17.372-16.318,28.076-33.164,28.076c-8.949,0-17.372-3.334-23.689-9.651c-8.949-8.95-9.651-18.776-9.651-45.448
		s0.702-36.499,9.651-45.448c6.317-6.317,14.74-9.651,23.689-9.651c16.845,0,29.127,10.704,32.813,28.076h9.651
		C393.02,29.038,377.227,15,354.767,15c-11.932,0-22.987,4.563-31.235,12.81c-11.405,11.406-11.581,22.461-11.581,50.712
		c0,28.076,0.176,39.306,11.581,50.712c8.248,8.246,19.303,12.809,31.235,12.809C376.876,142.043,393.02,128.005,397.231,105.545
		 M255.274,28.687l26.146,73.524h-52.291L255.274,28.687z M295.282,140.99h10.178L259.485,16.053h-8.422L205.089,140.99h10.177
		l10.88-30.356h58.257L295.282,140.99z M202.63,52.025c0,18.776-11.932,27.55-29.304,27.55h-35.27V24.476h35.27
		C190.698,24.476,202.63,33.25,202.63,52.025 M212.106,52.025c0-22.987-16.143-35.972-37.727-35.972h-45.798V140.99h9.475V87.997
		h36.323C195.963,87.997,212.106,74.837,212.106,52.025 M107.701,107.475c0-10.002-4.036-18.6-10.879-24.215
		c-5.089-4.387-10.529-6.668-22.286-8.248l-13.511-2.105c-7.019-1.229-14.213-4.036-18.6-7.721
		c-4.387-3.685-6.493-9.125-6.493-16.319c0-15.968,10.704-25.795,28.953-25.795c14.74,0,22.987,4.563,30.357,11.581l6.142-6.141
		C90.68,19.212,80.854,15,65.412,15c-24.04,0-38.78,13.161-38.78,34.218c0,9.826,3.334,17.547,9.827,22.987
		c5.439,4.738,12.809,7.721,22.285,9.124l14.564,2.282c10.353,1.403,13.336,2.983,18.074,6.668
		c4.738,4.035,6.843,10.002,6.843,17.547c0,16.318-12.283,25.795-32.111,25.795c-14.915,0-24.216-3.51-35.446-14.74L24,125.549
		c11.406,11.406,23.163,16.494,41.587,16.494C91.733,142.043,107.701,128.707,107.701,107.475"/>
	<polyline points="650.075,65.985 689.269,17.691 667.264,17.691 616.907,80.768 616.565,80.768 616.565,17.691 598.004,17.691 
		598.004,104.651 597.655,104.651 542.317,17.691 524.787,17.691 524.787,140.057 543.354,140.057 543.354,53.097 543.685,53.097 
		599.034,140.057 616.565,140.057 616.565,107.28 638.228,80.609 671.392,140.057 693.389,140.057 650.075,65.985 	"/>
	<path style="fill:#8A8C8E;" d="M692.325,223.464h3.711v-48.928h-3.711v42.399l-28.244-42.399h-3.711v48.928h3.711v-42.537
		L692.325,223.464 M644.84,199c0,10.446-0.274,14.294-3.78,17.799c-2.474,2.473-5.771,3.779-9.276,3.779
		c-3.505,0-6.803-1.307-9.277-3.779c-3.505-3.505-3.78-7.353-3.78-17.799c0-10.445,0.275-14.294,3.78-17.798
		c2.475-2.475,5.772-3.78,9.277-3.78c3.505,0,6.803,1.306,9.276,3.78C644.565,184.706,644.84,188.555,644.84,199 M648.551,199
		c0-11.064-0.068-15.393-4.536-19.86c-3.229-3.229-7.559-5.017-12.231-5.017c-4.673,0-9.002,1.787-12.232,5.017
		c-4.467,4.468-4.535,8.796-4.535,19.86c0,10.995,0.068,15.393,4.535,19.86c3.231,3.229,7.56,5.017,12.232,5.017
		c4.673,0,9.003-1.787,12.231-5.017C648.482,214.393,648.551,209.995,648.551,199 M601.409,198.312
		c0,5.497,0.207,14.02-3.643,18.073c-2.816,2.955-6.597,3.78-10.514,3.78h-11.82v-42.332h11.82c3.917,0,7.697,0.825,10.514,3.78
		C601.616,185.668,601.409,192.816,601.409,198.312 M605.12,198.312c0-6.597,0.206-14.362-4.741-19.309
		c-2.955-2.955-7.079-4.467-12.232-4.467h-16.425v48.928h16.425c5.153,0,9.277-1.511,12.232-4.466
		C605.326,214.05,605.12,204.91,605.12,198.312 M554.268,223.464h3.711v-48.928h-3.711v42.399l-28.243-42.399h-3.712v48.928h3.712
		v-42.537L554.268,223.464z M506.783,199c0,10.446-0.275,14.294-3.78,17.799c-2.474,2.473-5.772,3.779-9.277,3.779
		c-3.505,0-6.803-1.307-9.276-3.779c-3.505-3.505-3.78-7.353-3.78-17.799c0-10.445,0.275-14.294,3.78-17.798
		c2.474-2.475,5.772-3.78,9.276-3.78c3.506,0,6.804,1.306,9.277,3.78C506.508,184.706,506.783,188.555,506.783,199 M510.494,199
		c0-11.064-0.069-15.393-4.536-19.86c-3.231-3.229-7.559-5.017-12.232-5.017c-4.673,0-9.002,1.787-12.232,5.017
		c-4.467,4.468-4.536,8.796-4.536,19.86c0,10.995,0.069,15.393,4.536,19.86c3.23,3.229,7.559,5.017,12.232,5.017
		c4.674,0,9.002-1.787,12.232-5.017C510.425,214.393,510.494,209.995,510.494,199 M442.735,223.464h29.686v-3.298h-25.976v-45.63
		h-3.711V223.464z M397.598,203.338l-14.262-28.796h7.608l10.046,21.705l10.045-21.705h7.605l-14.27,28.79v20.132h-6.772V203.338z
		 M349.481,174.542h18.514c3.948,0,7.17,1.073,9.665,3.221c3.002,2.439,4.567,5.917,4.698,10.436
		c-0.087,6.643-3.138,11.163-9.151,13.557l10.968,21.709h-8.523l-9.808-20.907h-9.189v20.907h-7.174V174.542z M356.655,195.986
		h10.883c2.694-0.044,4.714-0.853,6.061-2.423c1.324-1.458,1.987-3.253,1.987-5.383c-0.043-2.557-0.836-4.407-2.379-5.552
		c-1.216-1.009-2.975-1.514-5.278-1.514h-11.274V195.986z M331.854,212.521h-17.971l-3.64,10.942h-7.605l17.225-48.922h6.012
		l17.224,48.922h-7.572L331.854,212.521z M329.807,205.952l-6.857-21.403h-0.13l-6.857,21.403H329.807z M301.315,209.797
		c-1.041,4.534-3.024,8.019-5.95,10.452c-3.013,2.412-6.579,3.618-10.697,3.618c-3.726-0.09-6.834-1.029-9.324-2.819
		c-2.535-1.722-4.376-3.713-5.523-5.972c-0.347-0.738-0.661-1.443-0.942-2.114c-0.26-0.693-0.478-1.566-0.651-2.617
		c-0.325-1.969-0.487-5.749-0.487-11.342c0-5.682,0.163-9.484,0.488-11.409c0.347-1.923,0.877-3.477,1.592-4.664
		c1.148-2.259,2.99-4.271,5.526-6.04c2.491-1.789,5.601-2.706,9.327-2.751c4.572,0.045,8.299,1.441,11.181,4.188
		c2.881,2.77,4.701,6.198,5.46,10.286h-7.617c-0.586-1.974-1.65-3.654-3.19-5.044c-1.606-1.322-3.559-2.007-5.859-2.052
		c-1.693,0.045-3.147,0.393-4.362,1.042c-1.238,0.674-2.236,1.514-2.995,2.523c-0.933,1.054-1.551,2.41-1.856,4.069
		c-0.347,1.749-0.52,5.032-0.52,9.852c0,4.82,0.173,8.081,0.521,9.785c0.304,1.704,0.922,3.082,1.856,4.136
		c0.76,1.009,1.758,1.827,2.996,2.455c1.216,0.74,2.67,1.109,4.364,1.109c4.038,0,7.056-2.23,9.053-6.691H301.315z M231.133,174.542
		h30.272v6.976h-23.097v13.998h19.716v6.571h-19.716v14.401h23.097v6.976h-30.272V174.542z M212.577,202.087h-18.796v21.377h-7.175
		v-48.922h7.175v20.974h18.796v-20.974h7.175v48.922h-7.175V202.087z M160.299,181.115h-12.987v-6.573h33.158v6.573h-12.996v42.349
		h-7.175V181.115z M117.142,199.003c0,4.82,0.173,8.081,0.52,9.785c0.304,1.704,0.923,3.083,1.856,4.136
		c0.759,1.009,1.758,1.827,2.995,2.455c1.215,0.74,2.67,1.109,4.363,1.109c1.714,0,3.2-0.369,4.46-1.109
		c1.193-0.628,2.148-1.446,2.865-2.455c0.933-1.054,1.573-2.432,1.921-4.136c0.325-1.704,0.488-4.965,0.488-9.785
		c0-4.819-0.163-8.103-0.488-9.852c-0.348-1.659-0.988-3.016-1.921-4.069c-0.717-1.009-1.672-1.849-2.865-2.523
		c-1.26-0.649-2.746-0.997-4.46-1.042c-1.693,0.045-3.148,0.393-4.363,1.042c-1.237,0.674-2.236,1.514-2.995,2.523
		c-0.933,1.054-1.552,2.41-1.856,4.069C117.315,190.9,117.142,194.184,117.142,199.003 M109.967,199.003
		c0-5.694,0.162-9.504,0.487-11.432c0.347-1.929,0.877-3.486,1.593-4.675c1.147-2.25,2.988-4.256,5.522-6.017
		c2.49-1.783,5.598-2.696,9.323-2.741c3.769,0.045,6.909,0.962,9.421,2.751c2.491,1.769,4.289,3.781,5.393,6.04
		c0.801,1.187,1.353,2.741,1.656,4.664c0.281,1.925,0.422,5.728,0.422,11.409c0,5.593-0.141,9.373-0.422,11.342
		c-0.304,1.968-0.856,3.545-1.657,4.731c-1.104,2.259-2.902,4.25-5.393,5.972c-2.512,1.79-5.652,2.729-9.42,2.819
		c-3.725-0.09-6.833-1.029-9.323-2.819c-2.534-1.722-4.375-3.713-5.523-5.972c-0.346-0.738-0.661-1.443-0.942-2.114
		c-0.26-0.693-0.477-1.566-0.65-2.617C110.129,208.376,109.967,204.596,109.967,199.003 M70.843,174.542H88.02
		c1.865,0,3.665,0.179,5.4,0.537c1.735,0.469,3.492,1.431,5.27,2.885c1.493,1.096,2.705,2.662,3.636,4.697
		c0.974,1.969,1.461,4.295,1.461,6.979c0,3.624-1.237,6.922-3.709,9.898c-2.539,3.132-6.248,4.743-11.129,4.832H78.017v19.095
		h-7.174V174.542z M78.017,197.396h10.649c2.671-0.046,4.679-0.9,6.025-2.562c1.281-1.618,1.922-3.415,1.922-5.393
		c0-1.642-0.261-3.023-0.782-4.148c-0.543-1.011-1.303-1.808-2.28-2.393c-1.476-0.967-3.192-1.428-5.145-1.383H78.017V197.396z
		 M53.216,212.521H35.245l-3.64,10.942H24l17.225-48.922h6.012l17.224,48.922h-7.573L53.216,212.521z M51.169,205.952l-6.857-21.403
		h-0.13l-6.857,21.403H51.169z"/>
</g>
</svg>
